<svg style="isolation:isolate" viewBox="0 0 1120 1200" xmlns="http://www.w3.org/2000/svg" width="1120" height="1200">
<defs>
<clipPath id="a">
<rect width="1120" height="1200"/>
</clipPath>
</defs>
<g clip-path="url(#a)">
<polygon points="1058.9 888.04 560 1176.1 61.101 888.04 61.101 311.96 560 23.921 1058.9 311.96" fill="#e9dbc5" stroke="#f16721" stroke-linecap="square" stroke-miterlimit="3" stroke-width="20" vector-effect="non-scaling-stroke"/>
<g fill="none" stroke="#000" stroke-miterlimit="10" stroke-width="26">
<path d="m409.16 314.54c50.995 25.08 92.087 55.124 117.93 92.851 40.567 23.863 72.853 60.349 102.87 100.37 23.099-44.552 47.105-82.089 75.288-87.84 24.578 10.715 47.964 30.187 70.252 57.725 49.11 69.465 34.077 301.48 7.923 409.51-41.689 63.834-78.271 129.19-132.54 171.36 10.046 13.005-6.181 45.483-6.181 45.483-69.584 48.704-109.01 55.648-155.4 20.856-3.016-24.909-8.614-49.437-16.704-73.188-62.283-47.296-114.35-79.201-156.35-187.61-24.268-131.01-22.025-269.65 0-414.02 39.231-36.749 71.47-80.609 92.827-135.49l-15.057-132.99" vector-effect="non-scaling-stroke"/>
<path d="m771 317c13.912 44.093 18.413 116.55 4.5 160.64" vector-effect="non-scaling-stroke"/>
<path d="m472.68 1051.7c59.658 19.687 134.09 29.877 178.21 6.849" vector-effect="non-scaling-stroke"/>
<path d="m629.96 507.76s6.446-228.22 7.04-241.51" vector-effect="non-scaling-stroke"/>
</g>
<g stroke="#98694d" stroke-miterlimit="10" stroke-width="14">
<path d="m409.16 314.54c50.995 25.08 92.087 55.124 117.93 92.851 40.567 23.863 72.853 60.349 102.87 100.37 23.099-44.552 47.105-82.089 75.288-87.84 24.578 10.715 47.964 30.187 70.252 57.725 49.11 69.465 34.077 301.48 7.923 409.51-41.689 63.834-78.271 129.19-132.54 171.36 10.046 13.005-6.181 45.483-6.181 45.483-69.584 48.704-109.01 55.648-155.4 20.856-3.016-24.909-8.614-49.437-16.704-73.188-62.283-47.296-114.35-79.201-156.35-187.61-24.268-131.01-22.025-269.65 0-414.02 39.231-36.749 71.47-80.609 92.827-135.49l-15.057-132.99" fill="#c09061" vector-effect="non-scaling-stroke"/>
<path d="m772 319c12.421 44.32 17.283 112.32 3.5 156" fill="none" vector-effect="non-scaling-stroke"/>
<path d="m782.93 888.97c-45.746-46.053-91.468-57.567-110.12-186.36-26.242-67.85-42.885-131.85-42.271-188.92 0 0 6.394-230.34 6.466-245.32" fill="none" vector-effect="non-scaling-stroke"/>
<path d="m319.82 866.68c59.577-23.192 87.883-50.445 99.184-134.68q-34.288-180.22-99.184-275.5" fill="none" vector-effect="non-scaling-stroke"/>
<path d="m530 406c0.067 11.487-92.634 219.08-67.013 331.26 63.373 26.015 130.17 42.338 209.82-5.259-0.646 0.841 12.971 41.827 11.195 42-245.66 87.324-212.84 263.68-209.29 278.55 3.558 14.865 132.84 29.599 176.55 6.785q-49.81-22.424-79.268-86.332c-6.036-57.906 125.7-98.854 134.91-191.09 0.998-10.003 61.597-188.98 0-362.91" fill="none" vector-effect="non-scaling-stroke"/>
</g>
<g stroke-miterlimit="10" style="isolation:isolate">
<ellipse cx="573" cy="968.5" rx="33" ry="23.5" fill="#c09061" stroke="#98694d" stroke-width="10" vector-effect="non-scaling-stroke"/>
<ellipse cx="573" cy="968.5" rx="27.114" ry="16.864" fill="#df0000" stroke="#553d3a" stroke-width="4" vector-effect="non-scaling-stroke"/>
</g>
<g style="isolation:isolate">
<g style="isolation:isolate">
<circle cx="687.97" cy="754.66" r="63.343" fill="none" stroke="#98694d" stroke-miterlimit="10" stroke-width="10" vector-effect="non-scaling-stroke"/>
<circle cx="688.93" cy="755.07" r="57.067" stroke="#d96226" stroke-miterlimit="10" stroke-width="4" vector-effect="non-scaling-stroke"/>
<g fill="#fff" style="isolation:isolate">
<path d="m707.18 715.26c-8.002-3.992-17.497-2.68-16.276-5.127 1.22-2.447 11.121-5.015 19.123-1.023s11.094 13.042 9.874 15.489c-1.221 2.447-4.719-5.347-12.721-9.339z"/>
<path d="m727.16 735.22c-1.901-2.697-1.977-5.921-0.17-7.195 1.808-1.274 4.819-0.119 6.72 2.578 1.901 2.698 1.977 5.922 0.169 7.196s-4.818 0.118-6.719-2.579z"/>
<path d="m680.86 800.31c8.802-1.575 4.304-1.892 4.785 0.799 0.482 2.692 10.311 1.972 1.508 3.547-8.802 1.575-16.686-3.839-17.168-6.531-0.481-2.692 2.072 3.759 10.875 2.185z"/>
</g>
</g>
<g style="isolation:isolate">
<circle cx="436.66" cy="754.66" r="63.343" fill="none" stroke="#98694d" stroke-miterlimit="10" stroke-width="10" vector-effect="non-scaling-stroke"/>
<circle cx="437.78" cy="755.22" r="57.222" stroke="#d96226" stroke-miterlimit="10" stroke-width="4" vector-effect="non-scaling-stroke"/>
<g fill="#fff" style="isolation:isolate">
<path d="m460 723c-6.925-5.658-16.476-6.471-14.746-8.588 1.73-2.118 11.954-2.44 18.879 3.217 6.925 5.658 7.946 15.167 6.216 17.284-1.73 2.118-3.424-6.255-10.349-11.913z"/>
<path d="m470.96 778.15c2.112-2.535 5.027-3.593 6.504-2.362 1.478 1.232 0.962 4.29-1.15 6.824-2.113 2.535-5.028 3.593-6.505 2.362-1.478-1.232-0.962-4.289 1.151-6.824z"/>
<path d="m450.32 795.5c7.103-5.434 2.96-3.654 4.621-1.482s10.068-2.972 2.965 2.461c-7.102 5.433-16.59 4.234-18.252 2.062-1.661-2.172 3.564 2.392 10.666-3.041z"/>
</g>
</g>
</g>
<g stroke="#553d3a" stroke-miterlimit="10" stroke-width="10">
<circle cx="312.26" cy="451.74" r="23.262" fill="#930" vector-effect="non-scaling-stroke"/>
<circle cx="414.38" cy="320.31" r="29.729" fill="#930" vector-effect="non-scaling-stroke"/>
<circle cx="536.69" cy="407.28" r="25.844" fill="#0c0" vector-effect="non-scaling-stroke"/>
<circle cx="711.43" cy="418.4" r="24.565" fill="#fc0" vector-effect="non-scaling-stroke"/>
<circle cx="630.74" cy="482.26" r="23.262" fill="#930" vector-effect="non-scaling-stroke"/>
<circle cx="778.93" cy="467.53" r="24.565" fill="#255909" vector-effect="non-scaling-stroke"/>
<circle cx="785.25" cy="888" r="18.25" fill="#930" vector-effect="non-scaling-stroke"/>
<circle cx="309" cy="868" r="20" fill="#930" vector-effect="non-scaling-stroke"/>
<circle cx="470.5" cy="1055.5" r="17.5" fill="#930" vector-effect="non-scaling-stroke"/>
<circle cx="654.44" cy="1073" r="22.656" fill="#930" vector-effect="non-scaling-stroke"/>
</g>
<g stroke="#553d3a" stroke-miterlimit="10" stroke-width="10" style="isolation:isolate">
<path d="m752.36 343.04c-2.352-15.525 8.662-31.398 18.85-32.942 8.633-1.307 24.995 10.42 27.346 25.945 2.352 15.525-3.105 29.245-18.63 31.596-15.525 2.352-25.215-9.074-27.566-24.599z" fill="#255909" vector-effect="non-scaling-stroke"/>
<path d="m608.1 306.55c0-15.702 12.748-47.88 28.45-47.88s28.45 32.178 28.45 47.88-12.748 28.45-28.45 28.45-28.45-12.748-28.45-28.45z" fill="#fc0" vector-effect="non-scaling-stroke"/>
<path d="m374.64 210.78c0-11.414 9.267-31.775 20.68-31.775 11.414 0 20.68 20.361 20.68 31.775 0 11.413-9.266 20.68-20.68 20.68-11.413 0-20.68-9.267-20.68-20.68z" fill="#0c0" vector-effect="non-scaling-stroke"/>
</g>
<polygon points="1058.9 888.04 560 1176.1 61.101 888.04 61.101 311.96 560 23.921 1058.9 311.96" fill="none" stroke="#f16721" stroke-linecap="square" stroke-miterlimit="3" stroke-width="40" vector-effect="non-scaling-stroke"/>
</g>
</svg>
